<?xml version="1.0" standalone="no"?><svg xmlns="http://www.w3.org/2000/svg" viewBox="0 0 1440 320"><path fill="#111a3a" fill-opacity="1" d="M0,32L0,224L80,224L80,192L160,192L160,288L240,288L240,128L320,128L320,256L400,256L400,256L480,256L480,96L560,96L560,256L640,256L640,224L720,224L720,256L800,256L800,64L880,64L880,96L960,96L960,320L1040,320L1040,128L1120,128L1120,96L1200,96L1200,128L1280,128L1280,32L1360,32L1360,96L1440,96L1440,320L1360,320L1360,320L1280,320L1280,320L1200,320L1200,320L1120,320L1120,320L1040,320L1040,320L960,320L960,320L880,320L880,320L800,320L800,320L720,320L720,320L640,320L640,320L560,320L560,320L480,320L480,320L400,320L400,320L320,320L320,320L240,320L240,320L160,320L160,320L80,320L80,320L0,320L0,320Z"></path></svg>